# xmcd
#
# Track frame offsets:
# 150
# 22399
# 43171
# 75727
# 95086
# 122846
# 144891
# 175884
# 225671
# 250573
# 271053
# 291157
#
# Disc length: 4143 seconds
#
# Revision: 1
# Processed by: cddbd v1.5.2PL0 Copyright (c) Steve Scherf et al.
# Submitted via: CedeCatalogueitor 2.6.0.6 http://personales.ya.com/cdcatalogueitor
#
DISCID=a5102d0c
DTITLE=Chris Duarte and Bluestone Co. - 396
DYEAR=2009
DGENRE=
TTITLE0=Back In Town
TTITLE1=Put Up Or Shut
TTITLE2=Chattahoochee Side
TTITLE3=396
TTITLE4=Give It Back To Me
TTITLE5=Silverspoon
TTITLE6=Funky Mama
TTITLE7=Mad As I Can Be
TTITLE8=Angelina
TTITLE9=Still I Think Of You
TTITLE10=The Ballad Of Kohima Ridge
TTITLE11=H2k3
EXTD=
EXTT0=
EXTT1=
EXTT2=
EXTT3=
EXTT4=
EXTT5=
EXTT6=
EXTT7=
EXTT8=
EXTT9=
EXTT10=
EXTT11=
PLAYORDER=
